<mxfile host="app.diagrams.net" modified="2023-06-25T11:27:28.362Z" agent="Mozilla/5.0 (Windows NT 10.0; Win64; x64) AppleWebKit/537.36 (KHTML, like Gecko) Chrome/114.0.0.0 Safari/537.36" etag="k7HwuaAVzQopyFMr0-la" version="21.5.0" type="github">
  <diagram id="C5RBs43oDa-KdzZeNtuy" name="Page-1">
    <mxGraphModel dx="880" dy="428" grid="1" gridSize="10" guides="1" tooltips="1" connect="1" arrows="1" fold="1" page="1" pageScale="1" pageWidth="827" pageHeight="1169" math="0" shadow="0">
      <root>
        <mxCell id="WIyWlLk6GJQsqaUBKTNV-0" />
        <mxCell id="WIyWlLk6GJQsqaUBKTNV-1" parent="WIyWlLk6GJQsqaUBKTNV-0" />
        <mxCell id="sPEcf00RkdG31sg-Cs6y-0" value="" style="ellipse;html=1;shape=startState;fillColor=#000000;strokeColor=#000000;" vertex="1" parent="WIyWlLk6GJQsqaUBKTNV-1">
          <mxGeometry x="420" y="260" width="30" height="30" as="geometry" />
        </mxCell>
        <mxCell id="sPEcf00RkdG31sg-Cs6y-1" value="" style="edgeStyle=orthogonalEdgeStyle;html=1;verticalAlign=bottom;endArrow=open;endSize=8;strokeColor=#000000;rounded=0;" edge="1" source="sPEcf00RkdG31sg-Cs6y-0" parent="WIyWlLk6GJQsqaUBKTNV-1">
          <mxGeometry relative="1" as="geometry">
            <mxPoint x="435" y="350" as="targetPoint" />
          </mxGeometry>
        </mxCell>
        <mxCell id="sPEcf00RkdG31sg-Cs6y-2" value="Créer un inventaire" style="rounded=1;whiteSpace=wrap;html=1;" vertex="1" parent="WIyWlLk6GJQsqaUBKTNV-1">
          <mxGeometry x="380" y="350" width="120" height="40" as="geometry" />
        </mxCell>
        <mxCell id="sPEcf00RkdG31sg-Cs6y-3" value="" style="edgeStyle=orthogonalEdgeStyle;html=1;verticalAlign=bottom;endArrow=open;endSize=8;strokeColor=#000000;rounded=0;" edge="1" parent="WIyWlLk6GJQsqaUBKTNV-1">
          <mxGeometry relative="1" as="geometry">
            <mxPoint x="439.5" y="450" as="targetPoint" />
            <mxPoint x="439.5" y="390" as="sourcePoint" />
          </mxGeometry>
        </mxCell>
        <mxCell id="sPEcf00RkdG31sg-Cs6y-4" value="" style="edgeStyle=orthogonalEdgeStyle;html=1;verticalAlign=bottom;endArrow=open;endSize=8;strokeColor=#000000;rounded=0;" edge="1" parent="WIyWlLk6GJQsqaUBKTNV-1">
          <mxGeometry relative="1" as="geometry">
            <mxPoint x="439.5" y="740" as="targetPoint" />
            <mxPoint x="439.5" y="680" as="sourcePoint" />
          </mxGeometry>
        </mxCell>
        <mxCell id="sPEcf00RkdG31sg-Cs6y-5" value="" style="edgeStyle=orthogonalEdgeStyle;html=1;verticalAlign=bottom;endArrow=open;endSize=8;strokeColor=#000000;rounded=0;entryX=0.5;entryY=0;entryDx=0;entryDy=0;" edge="1" parent="WIyWlLk6GJQsqaUBKTNV-1" target="sPEcf00RkdG31sg-Cs6y-10">
          <mxGeometry relative="1" as="geometry">
            <mxPoint x="439.5" y="645" as="targetPoint" />
            <mxPoint x="439.5" y="585" as="sourcePoint" />
          </mxGeometry>
        </mxCell>
        <mxCell id="sPEcf00RkdG31sg-Cs6y-6" value="" style="edgeStyle=orthogonalEdgeStyle;html=1;verticalAlign=bottom;endArrow=open;endSize=8;strokeColor=#000000;rounded=0;" edge="1" parent="WIyWlLk6GJQsqaUBKTNV-1">
          <mxGeometry relative="1" as="geometry">
            <mxPoint x="439.5" y="550" as="targetPoint" />
            <mxPoint x="439.5" y="490" as="sourcePoint" />
          </mxGeometry>
        </mxCell>
        <mxCell id="sPEcf00RkdG31sg-Cs6y-7" value="Scanner une immobilisation" style="rounded=1;whiteSpace=wrap;html=1;" vertex="1" parent="WIyWlLk6GJQsqaUBKTNV-1">
          <mxGeometry x="380" y="450" width="120" height="40" as="geometry" />
        </mxCell>
        <mxCell id="sPEcf00RkdG31sg-Cs6y-8" value="Mettre à jour l&#39;état de l&#39;immobilisation" style="rounded=1;whiteSpace=wrap;html=1;" vertex="1" parent="WIyWlLk6GJQsqaUBKTNV-1">
          <mxGeometry x="375" y="550" width="120" height="40" as="geometry" />
        </mxCell>
        <mxCell id="sPEcf00RkdG31sg-Cs6y-9" value="Clôturer l&#39;inventaire" style="rounded=1;whiteSpace=wrap;html=1;" vertex="1" parent="WIyWlLk6GJQsqaUBKTNV-1">
          <mxGeometry x="380" y="740" width="120" height="40" as="geometry" />
        </mxCell>
        <mxCell id="sPEcf00RkdG31sg-Cs6y-10" value="" style="rhombus;whiteSpace=wrap;html=1;" vertex="1" parent="WIyWlLk6GJQsqaUBKTNV-1">
          <mxGeometry x="425" y="650" width="30" height="30" as="geometry" />
        </mxCell>
        <mxCell id="sPEcf00RkdG31sg-Cs6y-12" value="" style="endArrow=classic;html=1;rounded=0;entryX=0;entryY=0.5;entryDx=0;entryDy=0;" edge="1" parent="WIyWlLk6GJQsqaUBKTNV-1" target="sPEcf00RkdG31sg-Cs6y-7">
          <mxGeometry width="50" height="50" relative="1" as="geometry">
            <mxPoint x="370" y="570" as="sourcePoint" />
            <mxPoint x="280" y="470" as="targetPoint" />
            <Array as="points">
              <mxPoint x="240" y="570" />
              <mxPoint x="240" y="470" />
            </Array>
          </mxGeometry>
        </mxCell>
        <mxCell id="sPEcf00RkdG31sg-Cs6y-13" value="si inventaire terminé" style="text;html=1;align=center;verticalAlign=middle;resizable=0;points=[];autosize=1;strokeColor=none;fillColor=none;" vertex="1" parent="WIyWlLk6GJQsqaUBKTNV-1">
          <mxGeometry x="440" y="690" width="130" height="30" as="geometry" />
        </mxCell>
        <mxCell id="sPEcf00RkdG31sg-Cs6y-15" value="si inventaire en cours" style="text;html=1;align=center;verticalAlign=middle;resizable=0;points=[];autosize=1;strokeColor=none;fillColor=none;" vertex="1" parent="WIyWlLk6GJQsqaUBKTNV-1">
          <mxGeometry x="240" y="570" width="140" height="30" as="geometry" />
        </mxCell>
        <mxCell id="sPEcf00RkdG31sg-Cs6y-16" value="" style="ellipse;html=1;shape=endState;fillColor=#000000;strokeColor=#000000;" vertex="1" parent="WIyWlLk6GJQsqaUBKTNV-1">
          <mxGeometry x="425" y="840" width="30" height="30" as="geometry" />
        </mxCell>
        <mxCell id="sPEcf00RkdG31sg-Cs6y-17" value="" style="edgeStyle=orthogonalEdgeStyle;html=1;verticalAlign=bottom;endArrow=open;endSize=8;strokeColor=#000000;rounded=0;" edge="1" parent="WIyWlLk6GJQsqaUBKTNV-1">
          <mxGeometry relative="1" as="geometry">
            <mxPoint x="439.5" y="840" as="targetPoint" />
            <mxPoint x="439.5" y="780" as="sourcePoint" />
          </mxGeometry>
        </mxCell>
      </root>
    </mxGraphModel>
  </diagram>
</mxfile>
